<svg width="422" height="448" viewBox="0 0 422 448" fill="none" xmlns="http://www.w3.org/2000/svg">
<path d="M93.9997 189L1.1997 326C-1.5003 330.4 1.2997 336.1 6.3997 336.7L189.4 356.1L93.9997 189ZM6.6997 277.2L72.8997 169.7L5.4997 129.3C3.1997 127.9 0.199697 129.6 0.199697 132.3V275.4C0.199697 278.9 4.7997 280.3 6.6997 277.2ZM16.1997 372.3L187.1 449.3C191.8 451.5 197.1 448 197.1 442.9V385.2L18.0997 365.6C14.1997 365.2 12.6997 370.6 16.1997 372.3ZM87.5997 145.7L157.9 20.1C161.7 13.9 154.7 6.7 148.4 10.3L15.7997 97C13.5997 98.4 13.6997 101.6 15.8997 103L87.5997 145.7ZM211.1 154.7H307.1L223.1 6.7C220.3 2.2 215.7 0 211.1 0C206.5 0 201.9 2.2 199.1 6.7L115.1 154.7H211.1ZM416.7 129.3L349.3 169.7L415.5 277.2C417.4 280.2 422 278.9 422 275.4V132.3C422 129.6 419.1 127.9 416.7 129.3ZM334.6 145.7L406.3 102.9C408.5 101.6 408.6 98.4 406.4 96.9L273.8 10.3C267.5 6.7 260.5 13.9 264.3 20.1L334.6 145.7ZM404.1 365.6L225.2 385.2V443C225.2 448.1 230.5 451.5 235.2 449.4L406.1 372.4C409.5 370.6 408 365.2 404.1 365.6ZM328.2 189L232.7 356.1L415.7 336.7C420.8 336.1 423.6 330.4 420.9 326L328.2 189ZM211.1 182.8H122.8L211.1 337.3L299.4 182.8H211.1Z" fill="#FF204E"/>
</svg>
